<svg width="608" height="153" viewBox="0 0 608 153" fill="none" xmlns="http://www.w3.org/2000/svg">
<path d="M88.235 37.9495V54.0495C88.235 85.0995 88.235 88.5495 99.62 88.5495V92.2295C94.33 92.1145 86.395 91.9995 78.345 91.9995C69.835 91.9995 61.555 92.1145 55.805 92.2295V88.5495C66.73 88.5495 66.73 85.0995 66.73 62.6745V55.3145H32.69V62.6745C32.69 85.0995 32.69 88.5495 43.73 88.5495V92.2295C38.095 92.1145 29.815 91.9995 21.305 91.9995C13.255 91.9995 5.32 92.1145 0.375 92.2295V88.5495C11.185 88.5495 11.185 85.0995 11.185 54.0495V37.9495C11.185 9.19945 11.185 5.74945 0.835 5.74945V2.06945C5.665 2.18445 14.175 2.29945 22.455 2.29945C30.505 2.29945 38.095 2.18445 42.695 2.06945V5.74945C32.69 5.74945 32.69 9.31445 32.69 32.7745V37.7195H66.73V32.6595C66.73 9.19945 66.73 5.74945 57.185 5.74945V2.06945C61.9 2.18445 69.72 2.29945 77.885 2.29945C85.705 2.29945 93.295 2.18445 97.55 2.06945V5.74945C88.235 5.74945 88.235 9.19945 88.235 37.9495Z" fill="white"/>
<path d="M167.905 78.0845H143.985C140.995 85.2145 140.075 88.5495 149.16 88.5495V92.2295C142.835 92.1145 135.705 91.9995 128.23 91.9995C119.95 91.9995 113.855 92.1145 110.175 92.2295V88.5495C117.075 88.5495 118.8 85.3295 132.37 53.9345L155.255 0.91945H159.28L181.82 53.9345C195.045 85.0995 197 88.5495 203.785 88.5495V92.2295C199.875 92.1145 193.78 91.9995 185.27 91.9995C177.105 91.9995 169.285 92.1145 163.19 92.2295V88.5495C171.93 88.5495 170.78 85.0995 167.905 78.0845ZM149.505 62.3295H162.5L162.385 61.9845C158.705 50.9445 156.75 45.7695 156.29 43.5845H156.06C155.6 45.6545 153.3 50.8295 149.62 61.9845L149.505 62.3295Z" fill="white"/>
<path d="M225.727 54.0495V37.9495C225.727 9.19945 225.727 5.74945 215.377 5.74945V2.06945C219.402 2.18445 227.912 2.29945 236.192 2.29945C244.242 2.29945 252.292 2.18445 256.892 2.06945V5.74945C247.347 5.74945 247.232 9.31445 247.232 33.6945V39.7895L247.577 39.6745L256.087 30.0145C273.797 9.88945 274.832 5.74945 266.092 5.74945V2.06945C272.302 2.18445 279.892 2.29945 286.332 2.29945C292.772 2.29945 301.627 2.18445 306.457 2.06945V5.74945C299.787 5.74945 297.832 9.54446 277.822 31.1645L266.207 43.6995L284.837 66.8145C299.557 84.8695 302.662 88.5495 309.447 88.5495V92.2295C305.077 92.1145 296.797 91.9995 288.977 91.9995C281.962 91.9995 275.522 92.1145 267.012 92.2295V88.5495C275.177 88.5495 271.152 82.9145 260.802 68.9995L247.462 51.0595L247.232 51.1745V58.9945C247.232 85.2145 247.347 88.5495 257.927 88.5495V92.2295C252.292 92.1145 245.622 91.9995 237.112 91.9995C229.062 91.9995 219.057 92.1145 214.917 92.2295V88.5495C225.727 88.5495 225.727 85.0995 225.727 54.0495Z" fill="white"/>
<path d="M414.441 46.4595V46.5745C414.441 74.1745 392.476 94.1845 364.416 94.1845C337.506 94.1845 315.541 74.6345 315.541 48.5295C315.541 19.0895 337.966 0.689453 366.141 0.689453C392.821 0.689453 414.441 18.3995 414.441 46.4595ZM390.521 47.8395V47.7245C390.521 32.7745 380.401 19.0895 365.681 19.0895C349.006 19.0895 339.691 32.1995 339.691 47.8395C339.691 62.9045 349.466 75.5545 364.876 75.5545C380.401 75.5545 390.521 62.9045 390.521 47.8395Z" fill="white"/>
<path d="M516.025 37.9495V93.1495H512.46C494.98 77.9695 483.48 68.0795 475.89 61.4095C471.52 57.4995 465.54 51.6345 458.985 44.2745H458.64C458.755 48.8745 458.87 51.8645 458.87 54.0495C458.87 85.0995 458.87 88.4345 468.99 88.4345V92.2295C461.63 92.1145 454.845 91.9995 448.75 91.9995C440.93 91.9995 434.49 92.1145 429.545 92.2295V88.5495C440.01 88.5495 440.01 85.0995 440.01 54.0495V1.72445H443.575C460.365 16.7895 471.635 26.9095 479.11 33.8095C485.205 39.4445 489.575 44.0445 497.05 52.3245H497.395C497.28 47.1495 497.165 41.5145 497.165 37.9495C497.165 9.19945 497.165 5.74945 486.355 5.74945V2.06945C493.715 2.18445 500.385 2.29945 506.25 2.29945C514.07 2.29945 520.395 2.18445 525.34 2.06945V5.74945C516.025 5.74945 516.025 9.19945 516.025 37.9495Z" fill="white"/>
<path d="M552.314 54.0495V37.9495C552.314 9.19945 552.314 5.74945 542.999 5.74945V2.06945C549.554 2.06945 559.214 2.29945 570.484 2.29945C582.444 2.29945 595.209 2.18445 605.329 2.06945C605.099 8.27945 604.754 17.2495 604.524 29.6695H600.844C600.384 21.1595 597.049 18.5145 588.309 18.5145H573.819V38.5245H583.019C592.334 38.5245 594.519 37.8345 595.439 33.1195H599.004C598.774 37.3745 598.659 41.8595 598.659 46.1145C598.659 51.2895 598.774 56.2345 599.004 60.8345H595.554C594.864 56.0045 592.564 54.7395 583.249 54.7395H573.819V69.8045C573.819 74.0595 574.394 74.6345 578.534 74.7495C583.479 74.8645 587.389 74.9795 592.219 74.7495C598.889 74.4045 602.914 72.2195 603.489 65.2045H607.169C606.594 78.5445 606.249 85.7895 606.249 92.2295C596.014 92.1145 585.319 91.9995 575.544 91.9995C561.169 91.9995 548.749 92.1145 542.424 92.2295V88.5495C552.314 88.5495 552.314 85.0995 552.314 54.0495Z" fill="white"/>
<path d="M152.614 142.839V142.879C152.614 148.519 148.334 152.359 141.414 152.359C138.214 152.359 135.374 151.679 133.934 150.999C134.054 148.919 134.214 145.639 134.254 141.319H135.534C135.654 143.159 136.414 144.479 137.334 145.239C138.334 146.039 139.734 146.279 140.934 146.279C143.294 146.279 144.814 145.279 144.814 143.399C144.814 142.079 143.974 141.199 142.734 140.319C142.174 139.919 140.974 139.159 139.734 138.359C135.534 135.639 134.374 132.999 134.374 129.959C134.374 124.439 138.774 120.599 145.174 120.599C147.134 120.599 149.854 121.039 151.094 121.479C150.934 124.359 150.934 127.959 150.934 131.079H149.654C149.614 129.599 149.134 128.559 148.414 127.799C147.774 127.119 146.734 126.759 145.334 126.759C143.214 126.759 142.054 127.919 142.054 129.399C142.054 130.479 142.694 131.319 143.854 132.159C144.894 132.919 146.134 133.719 147.894 134.919C151.054 137.079 152.614 139.759 152.614 142.839Z" fill="white"/>
<path d="M179.705 138.799V133.199C179.705 123.199 179.705 121.999 176.465 121.999V120.719C178.745 120.719 182.105 120.799 186.025 120.799C190.185 120.799 194.625 120.759 198.145 120.719C198.065 122.879 197.945 125.999 197.865 130.319H196.585C196.425 127.359 195.265 126.439 192.225 126.439H187.185V133.399H190.385C193.625 133.399 194.385 133.159 194.705 131.519H195.945C195.865 132.999 195.825 134.559 195.825 136.039C195.825 137.839 195.865 139.559 195.945 141.159H194.745C194.505 139.479 193.705 139.039 190.465 139.039H187.185V144.279C187.185 145.759 187.385 145.959 188.825 145.999C190.545 146.039 191.905 146.079 193.585 145.999C195.905 145.879 197.305 145.119 197.505 142.679H198.785C198.585 147.319 198.465 149.839 198.465 152.079C194.905 152.039 191.185 151.999 187.785 151.999C182.785 151.999 178.465 152.039 176.265 152.079V150.799C179.705 150.799 179.705 149.599 179.705 138.799Z" fill="white"/>
<path d="M226.414 138.799V133.199C226.414 123.199 226.414 121.999 223.134 121.999V120.799H229.614C230.454 120.759 231.494 120.759 232.534 120.719C233.614 120.679 234.694 120.679 235.654 120.679C237.854 120.679 239.854 121.039 241.494 121.679C245.014 123.079 247.174 126.159 247.174 130.799C247.174 134.119 245.574 136.399 244.014 137.719C243.294 138.359 242.494 138.839 241.734 139.279V139.359C244.454 142.999 246.494 145.599 248.854 148.359C250.534 150.359 251.414 150.799 252.774 150.799V152.039C251.534 152.039 249.854 151.999 248.374 151.999C246.774 151.999 245.334 152.039 244.254 152.039C242.854 152.039 242.014 151.959 241.414 151.039C238.974 147.399 236.414 143.559 234.694 140.959H233.534V142.439C233.534 149.599 233.654 150.799 236.654 150.799V152.079C234.934 152.039 232.614 151.999 230.094 151.999C227.534 151.999 225.014 152.039 223.174 152.079V150.799C226.454 150.799 226.414 149.599 226.414 138.799ZM239.534 130.839V130.799C239.534 128.439 237.974 126.719 235.334 126.719C234.534 126.719 233.774 126.839 233.534 126.839V135.239C234.134 135.279 234.614 135.279 234.894 135.279C235.894 135.279 236.974 134.959 237.654 134.479C238.654 133.799 239.534 132.639 239.534 130.839Z" fill="white"/>
<path d="M294.884 133.199L286.444 152.599H285.204L276.284 133.199C271.684 123.159 270.964 121.999 268.564 121.999V120.719C269.764 120.759 272.484 120.799 275.644 120.799C278.484 120.799 281.324 120.759 283.364 120.719V121.999C279.124 121.999 279.684 123.159 282.604 129.519C283.804 132.159 284.924 134.919 285.924 137.759H286.044C287.004 134.919 288.084 132.239 289.164 129.679C291.884 123.199 292.404 121.999 288.644 121.999V120.719C291.044 120.759 293.804 120.799 296.444 120.799C299.044 120.799 301.364 120.759 302.404 120.719V121.999C299.964 121.999 299.244 123.159 294.884 133.199Z" fill="white"/>
<path d="M333.915 133.159V138.759C333.915 149.559 333.915 150.799 337.755 150.799V152.079C335.955 152.039 333.155 151.999 330.115 151.999C326.995 151.999 324.395 152.039 322.675 152.079V150.799C326.435 150.799 326.435 149.599 326.435 138.919V133.199C326.435 123.199 326.435 121.999 322.835 121.999V120.719C324.515 120.759 327.395 120.799 330.155 120.799C333.075 120.799 335.955 120.759 337.395 120.719V121.999C333.955 121.999 333.915 123.159 333.915 133.159Z" fill="white"/>
<path d="M360.139 136.599V136.559C360.139 126.319 368.659 120.439 379.179 120.439C380.339 120.439 381.619 120.519 382.859 120.599C384.099 120.719 385.299 120.879 386.339 121.039C386.179 123.919 386.099 125.879 386.019 131.399H384.819C384.579 129.519 383.819 128.439 382.979 127.759C382.059 127.039 380.299 126.679 378.339 126.679C373.259 126.679 368.459 130.319 368.459 136.279C368.459 142.439 372.539 146.119 377.899 146.119C379.819 146.119 381.739 145.719 382.939 144.919C383.939 144.279 384.699 143.399 384.979 141.599H386.179C386.179 144.959 386.259 148.879 386.339 151.399C385.539 151.639 384.219 151.959 382.899 152.159C381.339 152.399 379.739 152.479 377.899 152.479C367.739 152.479 360.139 146.399 360.139 136.599Z" fill="white"/>
<path d="M414.424 138.799V133.199C414.424 123.199 414.424 121.999 411.184 121.999V120.719C413.464 120.719 416.824 120.799 420.744 120.799C424.904 120.799 429.344 120.759 432.864 120.719C432.784 122.879 432.664 125.999 432.584 130.319H431.304C431.144 127.359 429.984 126.439 426.944 126.439H421.904V133.399H425.104C428.344 133.399 429.104 133.159 429.424 131.519H430.664C430.584 132.999 430.544 134.559 430.544 136.039C430.544 137.839 430.584 139.559 430.664 141.159H429.464C429.224 139.479 428.424 139.039 425.184 139.039H421.904V144.279C421.904 145.759 422.104 145.959 423.544 145.999C425.264 146.039 426.624 146.079 428.304 145.999C430.624 145.879 432.024 145.119 432.224 142.679H433.504C433.304 147.319 433.184 149.839 433.184 152.079C429.624 152.039 425.904 151.999 422.504 151.999C417.504 151.999 413.184 152.039 410.984 152.079V150.799C414.424 150.799 414.424 149.599 414.424 138.799Z" fill="white"/>
<path d="M476.533 142.839V142.879C476.533 148.519 472.253 152.359 465.333 152.359C462.133 152.359 459.293 151.679 457.853 150.999C457.973 148.919 458.133 145.639 458.173 141.319H459.453C459.573 143.159 460.333 144.479 461.253 145.239C462.253 146.039 463.653 146.279 464.853 146.279C467.213 146.279 468.733 145.279 468.733 143.399C468.733 142.079 467.893 141.199 466.653 140.319C466.093 139.919 464.893 139.159 463.653 138.359C459.453 135.639 458.293 132.999 458.293 129.959C458.293 124.439 462.693 120.599 469.093 120.599C471.053 120.599 473.773 121.039 475.013 121.479C474.853 124.359 474.853 127.959 474.853 131.079H473.573C473.533 129.599 473.053 128.559 472.333 127.799C471.693 127.119 470.653 126.759 469.253 126.759C467.133 126.759 465.973 127.919 465.973 129.399C465.973 130.479 466.613 131.319 467.773 132.159C468.813 132.919 470.053 133.719 471.813 134.919C474.973 137.079 476.533 139.759 476.533 142.839Z" fill="white"/>
<path d="M498.999 128.999H603.999V140.999H498.999V128.999Z" fill="#02B5AC"/>
<path d="M6.99918 128.999H111.999V140.999H6.99918V128.999Z" fill="#02B5AC"/>
</svg>
